<mxfile host="app.diagrams.net" agent="Mozilla/5.0 (Windows NT 10.0; Win64; x64) AppleWebKit/537.36 (KHTML, like Gecko) Chrome/139.0.0.0 Safari/537.36 Edg/139.0.0.0" version="28.1.0">
  <diagram name="Page-1" id="58cdce13-f638-feb5-8d6f-7d28b1aa9fa0">
    <mxGraphModel dx="1134" dy="537" grid="1" gridSize="10" guides="1" tooltips="1" connect="1" arrows="1" fold="1" page="1" pageScale="1" pageWidth="1100" pageHeight="850" background="none" math="0" shadow="0">
      <root>
        <mxCell id="0" />
        <mxCell id="1" parent="0" />
        <mxCell id="382b91b5511bd0f7-1" value="" style="ellipse;html=1;shape=startState;fillColor=#000000;strokeColor=#ff0000;rounded=1;shadow=0;comic=0;labelBackgroundColor=none;fontFamily=Verdana;fontSize=12;fontColor=#000000;align=center;direction=south;" parent="1" vertex="1">
          <mxGeometry x="116.5" y="45.5" width="30" height="30" as="geometry" />
        </mxCell>
        <mxCell id="382b91b5511bd0f7-6" value="Create handlers for BLE.db and BeaconLocate.db" style="rounded=1;whiteSpace=wrap;html=1;arcSize=24;fillColor=#ffffc0;strokeColor=#FF0000;shadow=0;comic=0;labelBackgroundColor=none;fontFamily=Verdana;fontSize=12;fontColor=#000000;align=center;" parent="1" vertex="1">
          <mxGeometry x="71" y="180" width="120" height="60" as="geometry" />
        </mxCell>
        <mxCell id="-b5_aeEiTCpsvocbng9k-2" value="Create file BeaconLocate_L4_py.pid" style="rounded=1;whiteSpace=wrap;html=1;arcSize=24;fillColor=#ffffc0;strokeColor=#ff0000;shadow=0;comic=0;labelBackgroundColor=none;fontFamily=Verdana;fontSize=12;fontColor=#000000;align=center;" parent="1" vertex="1">
          <mxGeometry x="20" y="97.5" width="222" height="60" as="geometry" />
        </mxCell>
        <mxCell id="-b5_aeEiTCpsvocbng9k-11" value="Add new beacon&lt;span style=&quot;background-color: transparent; color: light-dark(rgb(0, 0, 0), rgb(237, 237, 237));&quot;&gt;&amp;nbsp;to the list&amp;nbsp;&lt;/span&gt;&lt;div&gt;&lt;span style=&quot;background-color: transparent; color: light-dark(rgb(0, 0, 0), rgb(237, 237, 237));&quot;&gt;self.MAC := MAC&lt;/span&gt;&lt;/div&gt;&lt;div&gt;&lt;span style=&quot;background-color: transparent; color: light-dark(rgb(0, 0, 0), rgb(237, 237, 237));&quot;&gt;self.timeStart := current date&lt;/span&gt;&lt;/div&gt;&lt;div&gt;self.timeEnd := current date&amp;nbsp;&lt;span style=&quot;background-color: transparent; color: light-dark(rgb(0, 0, 0), rgb(237, 237, 237));&quot;&gt;&lt;/span&gt;&lt;/div&gt;" style="rounded=1;whiteSpace=wrap;html=1;arcSize=24;fillColor=#ffffc0;strokeColor=#ff0000;shadow=0;comic=0;labelBackgroundColor=none;fontFamily=Verdana;fontSize=12;fontColor=#000000;align=center;" parent="1" vertex="1">
          <mxGeometry x="361" y="520" width="210" height="70" as="geometry" />
        </mxCell>
        <mxCell id="-b5_aeEiTCpsvocbng9k-15" value="Update self.timeEnd of the beacon with self.MAC = MAC already listed." style="rounded=1;whiteSpace=wrap;html=1;arcSize=24;fillColor=#ffffc0;strokeColor=#ff0000;shadow=0;comic=0;labelBackgroundColor=none;fontFamily=Verdana;fontSize=12;fontColor=#000000;align=center;" parent="1" vertex="1">
          <mxGeometry x="362" y="610" width="208" height="60" as="geometry" />
        </mxCell>
        <mxCell id="-b5_aeEiTCpsvocbng9k-25" value="&lt;h1 style=&quot;margin-top: 0px;&quot;&gt;BeaconLocate.py&lt;/h1&gt;" style="text;html=1;whiteSpace=wrap;overflow=hidden;rounded=0;" parent="1" vertex="1">
          <mxGeometry width="320" height="50" as="geometry" />
        </mxCell>
        <mxCell id="FOoScroTNqUPBx7kzsJf-6" style="edgeStyle=orthogonalEdgeStyle;html=1;labelBackgroundColor=none;endArrow=open;endSize=8;strokeColor=#ff0000;fontFamily=Verdana;fontSize=12;align=left;exitX=0.5;exitY=1;exitDx=0;exitDy=0;entryX=0.5;entryY=0;entryDx=0;entryDy=0;" parent="1" source="dgmD3xeiYTGedOPiwkHP-16" target="dgmD3xeiYTGedOPiwkHP-19" edge="1">
          <mxGeometry relative="1" as="geometry">
            <mxPoint x="630" y="320" as="sourcePoint" />
            <mxPoint x="630" y="351" as="targetPoint" />
            <Array as="points">
              <mxPoint x="466" y="340" />
              <mxPoint x="466" y="340" />
            </Array>
          </mxGeometry>
        </mxCell>
        <mxCell id="dgmD3xeiYTGedOPiwkHP-30" value="msj not NULL" style="edgeLabel;html=1;align=center;verticalAlign=middle;resizable=0;points=[];" parent="FOoScroTNqUPBx7kzsJf-6" vertex="1" connectable="0">
          <mxGeometry x="-0.1762" y="1" relative="1" as="geometry">
            <mxPoint x="2" y="-2" as="offset" />
          </mxGeometry>
        </mxCell>
        <mxCell id="FOoScroTNqUPBx7kzsJf-8" style="edgeStyle=orthogonalEdgeStyle;html=1;labelBackgroundColor=none;endArrow=open;endSize=8;strokeColor=#ff0000;fontFamily=Verdana;fontSize=12;align=left;exitX=0.902;exitY=0.525;exitDx=0;exitDy=0;entryX=0.5;entryY=0;entryDx=0;entryDy=0;exitPerimeter=0;" parent="1" source="382b91b5511bd0f7-1" target="-b5_aeEiTCpsvocbng9k-2" edge="1">
          <mxGeometry relative="1" as="geometry">
            <mxPoint x="129.39" y="75.5" as="sourcePoint" />
            <mxPoint x="129.39" y="113.5" as="targetPoint" />
          </mxGeometry>
        </mxCell>
        <mxCell id="FOoScroTNqUPBx7kzsJf-9" style="edgeStyle=orthogonalEdgeStyle;html=1;labelBackgroundColor=none;endArrow=open;endSize=8;strokeColor=#ff0000;fontFamily=Verdana;fontSize=12;align=left;exitX=0.5;exitY=1;exitDx=0;exitDy=0;entryX=0.5;entryY=0;entryDx=0;entryDy=0;" parent="1" source="-b5_aeEiTCpsvocbng9k-2" target="382b91b5511bd0f7-6" edge="1">
          <mxGeometry relative="1" as="geometry">
            <mxPoint x="196.5" y="202.5" as="sourcePoint" />
            <mxPoint x="196.5" y="240.5" as="targetPoint" />
          </mxGeometry>
        </mxCell>
        <mxCell id="FOoScroTNqUPBx7kzsJf-10" value="Create list of beacons" style="rounded=1;whiteSpace=wrap;html=1;arcSize=24;fillColor=#ffffc0;strokeColor=#FF0000;shadow=0;comic=0;labelBackgroundColor=none;fontFamily=Verdana;fontSize=12;fontColor=#000000;align=center;" parent="1" vertex="1">
          <mxGeometry x="71" y="260" width="116" height="70" as="geometry" />
        </mxCell>
        <mxCell id="FOoScroTNqUPBx7kzsJf-11" value="Define periodic task (T := 10) that verifies the disconnection of listed beacons" style="rounded=1;whiteSpace=wrap;html=1;arcSize=24;fillColor=#ffffc0;strokeColor=#FF0000;shadow=0;comic=0;labelBackgroundColor=none;fontFamily=Verdana;fontSize=12;fontColor=#000000;align=center;" parent="1" vertex="1">
          <mxGeometry x="36" y="360" width="186" height="80" as="geometry" />
        </mxCell>
        <mxCell id="FOoScroTNqUPBx7kzsJf-12" style="edgeStyle=orthogonalEdgeStyle;html=1;labelBackgroundColor=none;endArrow=open;endSize=8;strokeColor=#ff0000;fontFamily=Verdana;fontSize=12;align=left;exitX=0.483;exitY=0.996;exitDx=0;exitDy=0;entryX=0.5;entryY=0;entryDx=0;entryDy=0;exitPerimeter=0;" parent="1" source="382b91b5511bd0f7-6" target="FOoScroTNqUPBx7kzsJf-10" edge="1">
          <mxGeometry relative="1" as="geometry">
            <mxPoint x="128.86" y="285.5" as="sourcePoint" />
            <mxPoint x="128.86" y="325.5" as="targetPoint" />
          </mxGeometry>
        </mxCell>
        <mxCell id="FOoScroTNqUPBx7kzsJf-13" style="edgeStyle=orthogonalEdgeStyle;html=1;labelBackgroundColor=none;endArrow=open;endSize=8;strokeColor=#ff0000;fontFamily=Verdana;fontSize=12;align=left;exitX=0.5;exitY=1;exitDx=0;exitDy=0;entryX=0.5;entryY=0;entryDx=0;entryDy=0;" parent="1" source="FOoScroTNqUPBx7kzsJf-10" target="FOoScroTNqUPBx7kzsJf-11" edge="1">
          <mxGeometry relative="1" as="geometry">
            <mxPoint x="128" y="395.5" as="sourcePoint" />
            <mxPoint x="128" y="435.5" as="targetPoint" />
          </mxGeometry>
        </mxCell>
        <mxCell id="dgmD3xeiYTGedOPiwkHP-1" value="&lt;div&gt;&lt;br&gt;&lt;/div&gt;Does&amp;nbsp;&lt;span style=&quot;font-family: Verdana;&quot;&gt;BeaconLocate_L4_py&lt;/span&gt;&lt;span style=&quot;font-family: Verdana;&quot;&gt;.pid&lt;/span&gt;&lt;span style=&quot;font-family: Verdana;&quot;&gt;&amp;nbsp;&lt;/span&gt;&lt;div&gt;&lt;span style=&quot;font-family: Verdana;&quot;&gt;exist ?&lt;/span&gt;&lt;/div&gt;" style="rhombus;whiteSpace=wrap;html=1;fillColor=#FFFFCC;strokeColor=#FF0000;" parent="1" vertex="1">
          <mxGeometry x="19" y="532" width="220" height="70" as="geometry" />
        </mxCell>
        <mxCell id="dgmD3xeiYTGedOPiwkHP-4" value="Close db&#39;s connections" style="rounded=1;whiteSpace=wrap;html=1;arcSize=24;fillColor=#ffffc0;strokeColor=#ff0000;shadow=0;comic=0;labelBackgroundColor=none;fontFamily=Verdana;fontSize=12;fontColor=#000000;align=center;" parent="1" vertex="1">
          <mxGeometry x="64" y="632" width="130" height="50" as="geometry" />
        </mxCell>
        <mxCell id="dgmD3xeiYTGedOPiwkHP-5" value="Stop periodic task" style="rounded=1;whiteSpace=wrap;html=1;arcSize=24;fillColor=#ffffc0;strokeColor=#ff0000;shadow=0;comic=0;labelBackgroundColor=none;fontFamily=Verdana;fontSize=12;fontColor=#000000;align=center;" parent="1" vertex="1">
          <mxGeometry x="64" y="710" width="130" height="50" as="geometry" />
        </mxCell>
        <mxCell id="dgmD3xeiYTGedOPiwkHP-6" style="edgeStyle=orthogonalEdgeStyle;html=1;labelBackgroundColor=none;endArrow=open;endSize=8;strokeColor=#ff0000;fontFamily=Verdana;fontSize=12;align=left;exitX=0.5;exitY=1;exitDx=0;exitDy=0;entryX=0.5;entryY=0;entryDx=0;entryDy=0;" parent="1" source="dgmD3xeiYTGedOPiwkHP-1" target="dgmD3xeiYTGedOPiwkHP-4" edge="1">
          <mxGeometry relative="1" as="geometry">
            <mxPoint x="239" y="639" as="sourcePoint" />
            <mxPoint x="239" y="675" as="targetPoint" />
            <Array as="points">
              <mxPoint x="129" y="620" />
              <mxPoint x="129" y="620" />
            </Array>
          </mxGeometry>
        </mxCell>
        <mxCell id="dgmD3xeiYTGedOPiwkHP-11" value="No" style="edgeLabel;html=1;align=center;verticalAlign=middle;resizable=0;points=[];" parent="dgmD3xeiYTGedOPiwkHP-6" vertex="1" connectable="0">
          <mxGeometry x="-0.1872" relative="1" as="geometry">
            <mxPoint y="-4" as="offset" />
          </mxGeometry>
        </mxCell>
        <mxCell id="dgmD3xeiYTGedOPiwkHP-7" style="edgeStyle=orthogonalEdgeStyle;html=1;labelBackgroundColor=none;endArrow=open;endSize=8;strokeColor=#ff0000;fontFamily=Verdana;fontSize=12;align=left;exitX=0.5;exitY=1;exitDx=0;exitDy=0;entryX=0.5;entryY=0;entryDx=0;entryDy=0;" parent="1" source="dgmD3xeiYTGedOPiwkHP-4" target="dgmD3xeiYTGedOPiwkHP-5" edge="1">
          <mxGeometry relative="1" as="geometry">
            <mxPoint x="131" y="700" as="sourcePoint" />
            <mxPoint x="131" y="730" as="targetPoint" />
            <Array as="points">
              <mxPoint x="129" y="690" />
              <mxPoint x="129" y="690" />
            </Array>
          </mxGeometry>
        </mxCell>
        <mxCell id="dgmD3xeiYTGedOPiwkHP-9" value="" style="ellipse;html=1;shape=endState;fillColor=#000000;strokeColor=#ff0000;rounded=1;shadow=0;comic=0;labelBackgroundColor=none;fontFamily=Verdana;fontSize=12;fontColor=#000000;align=center;" parent="1" vertex="1">
          <mxGeometry x="115" y="790" width="30" height="30" as="geometry" />
        </mxCell>
        <mxCell id="dgmD3xeiYTGedOPiwkHP-10" style="edgeStyle=orthogonalEdgeStyle;html=1;labelBackgroundColor=none;endArrow=open;endSize=8;strokeColor=#ff0000;fontFamily=Verdana;fontSize=12;align=left;exitX=0.5;exitY=1;exitDx=0;exitDy=0;entryX=0.5;entryY=0;entryDx=0;entryDy=0;" parent="1" source="dgmD3xeiYTGedOPiwkHP-5" target="dgmD3xeiYTGedOPiwkHP-9" edge="1">
          <mxGeometry relative="1" as="geometry">
            <mxPoint x="170" y="700" as="sourcePoint" />
            <mxPoint x="170" y="728" as="targetPoint" />
            <Array as="points">
              <mxPoint x="130" y="760" />
              <mxPoint x="130" y="780" />
            </Array>
          </mxGeometry>
        </mxCell>
        <mxCell id="dgmD3xeiYTGedOPiwkHP-12" value="Save in msjs all unprocessed messages saved in BLE.db" style="rounded=1;whiteSpace=wrap;html=1;arcSize=24;fillColor=#ffffc0;strokeColor=#ff0000;shadow=0;comic=0;labelBackgroundColor=none;fontFamily=Verdana;fontSize=12;fontColor=#000000;align=center;" parent="1" vertex="1">
          <mxGeometry x="360" y="97.5" width="212" height="90" as="geometry" />
        </mxCell>
        <mxCell id="dgmD3xeiYTGedOPiwkHP-14" style="edgeStyle=orthogonalEdgeStyle;html=1;labelBackgroundColor=none;endArrow=open;endSize=8;strokeColor=#ff0000;fontFamily=Verdana;fontSize=12;align=left;entryX=0.5;entryY=0;entryDx=0;entryDy=0;" parent="1" target="dgmD3xeiYTGedOPiwkHP-12" edge="1">
          <mxGeometry relative="1" as="geometry">
            <mxPoint x="240" y="567" as="sourcePoint" />
            <mxPoint x="410" y="516" as="targetPoint" />
            <Array as="points">
              <mxPoint x="270" y="567" />
              <mxPoint x="270" y="60" />
              <mxPoint x="466" y="60" />
            </Array>
          </mxGeometry>
        </mxCell>
        <mxCell id="dgmD3xeiYTGedOPiwkHP-15" value="Yes" style="edgeLabel;html=1;align=center;verticalAlign=middle;resizable=0;points=[];" parent="dgmD3xeiYTGedOPiwkHP-14" vertex="1" connectable="0">
          <mxGeometry x="-0.0693" y="3" relative="1" as="geometry">
            <mxPoint x="3" y="123" as="offset" />
          </mxGeometry>
        </mxCell>
        <mxCell id="dgmD3xeiYTGedOPiwkHP-16" value="&lt;div&gt;&lt;br&gt;&lt;/div&gt;&lt;div&gt;for every msj in msjs with header = BNM and type = &quot;GEOSF&quot;&lt;/div&gt;" style="rhombus;whiteSpace=wrap;html=1;fillColor=#FFFFCC;strokeColor=#FF0000;" parent="1" vertex="1">
          <mxGeometry x="349" y="212.5" width="234" height="107.5" as="geometry" />
        </mxCell>
        <mxCell id="dgmD3xeiYTGedOPiwkHP-17" style="edgeStyle=orthogonalEdgeStyle;html=1;labelBackgroundColor=none;endArrow=open;endSize=8;strokeColor=#ff0000;fontFamily=Verdana;fontSize=12;align=left;exitX=0.5;exitY=1;exitDx=0;exitDy=0;entryX=0.5;entryY=0;entryDx=0;entryDy=0;" parent="1" source="dgmD3xeiYTGedOPiwkHP-12" target="dgmD3xeiYTGedOPiwkHP-16" edge="1">
          <mxGeometry relative="1" as="geometry">
            <mxPoint x="479.48" y="200" as="sourcePoint" />
            <mxPoint x="480" y="200" as="targetPoint" />
          </mxGeometry>
        </mxCell>
        <mxCell id="dgmD3xeiYTGedOPiwkHP-18" value="&lt;div&gt;Is there a beacon with&amp;nbsp;&lt;/div&gt;&lt;div&gt;the same MAC in the list?&lt;/div&gt;" style="rhombus;whiteSpace=wrap;html=1;fillColor=#FFFFCC;strokeColor=#FF0000;" parent="1" vertex="1">
          <mxGeometry x="352" y="427" width="234" height="63" as="geometry" />
        </mxCell>
        <mxCell id="dgmD3xeiYTGedOPiwkHP-19" value="MAC := getMAC(msj)" style="rounded=1;whiteSpace=wrap;html=1;arcSize=24;fillColor=#ffffc0;strokeColor=#ff0000;shadow=0;comic=0;labelBackgroundColor=none;fontFamily=Verdana;fontSize=12;fontColor=#000000;align=center;" parent="1" vertex="1">
          <mxGeometry x="392" y="350" width="148" height="50" as="geometry" />
        </mxCell>
        <mxCell id="dgmD3xeiYTGedOPiwkHP-22" style="edgeStyle=orthogonalEdgeStyle;html=1;labelBackgroundColor=none;endArrow=open;endSize=8;strokeColor=#ff0000;fontFamily=Verdana;fontSize=12;align=left;exitX=0.5;exitY=1;exitDx=0;exitDy=0;entryX=0.487;entryY=0;entryDx=0;entryDy=0;entryPerimeter=0;" parent="1" source="dgmD3xeiYTGedOPiwkHP-19" target="dgmD3xeiYTGedOPiwkHP-18" edge="1">
          <mxGeometry relative="1" as="geometry">
            <mxPoint x="600" y="350" as="sourcePoint" />
            <mxPoint x="600" y="380" as="targetPoint" />
            <Array as="points">
              <mxPoint x="466" y="425" />
            </Array>
          </mxGeometry>
        </mxCell>
        <mxCell id="dgmD3xeiYTGedOPiwkHP-24" style="edgeStyle=orthogonalEdgeStyle;html=1;labelBackgroundColor=none;endArrow=open;endSize=8;strokeColor=#ff0000;fontFamily=Verdana;fontSize=12;align=left;exitX=0.5;exitY=1;exitDx=0;exitDy=0;entryX=0.511;entryY=-0.002;entryDx=0;entryDy=0;entryPerimeter=0;" parent="1" source="dgmD3xeiYTGedOPiwkHP-18" target="-b5_aeEiTCpsvocbng9k-11" edge="1">
          <mxGeometry relative="1" as="geometry">
            <mxPoint x="468.55" y="505" as="sourcePoint" />
            <mxPoint x="468.55" y="532" as="targetPoint" />
            <Array as="points">
              <mxPoint x="468" y="490" />
            </Array>
          </mxGeometry>
        </mxCell>
        <mxCell id="dgmD3xeiYTGedOPiwkHP-25" value="No" style="edgeLabel;html=1;align=center;verticalAlign=middle;resizable=0;points=[];" parent="dgmD3xeiYTGedOPiwkHP-24" vertex="1" connectable="0">
          <mxGeometry x="-0.548" y="-2" relative="1" as="geometry">
            <mxPoint x="14" y="4" as="offset" />
          </mxGeometry>
        </mxCell>
        <mxCell id="dgmD3xeiYTGedOPiwkHP-26" style="edgeStyle=orthogonalEdgeStyle;html=1;labelBackgroundColor=none;endArrow=open;endSize=8;strokeColor=#ff0000;fontFamily=Verdana;fontSize=12;align=left;exitX=0;exitY=0.5;exitDx=0;exitDy=0;entryX=0;entryY=0.5;entryDx=0;entryDy=0;" parent="1" source="dgmD3xeiYTGedOPiwkHP-18" target="-b5_aeEiTCpsvocbng9k-15" edge="1">
          <mxGeometry relative="1" as="geometry">
            <mxPoint x="290" y="620" as="sourcePoint" />
            <mxPoint x="290" y="648" as="targetPoint" />
            <Array as="points">
              <mxPoint x="290" y="459" />
              <mxPoint x="290" y="640" />
            </Array>
          </mxGeometry>
        </mxCell>
        <mxCell id="dgmD3xeiYTGedOPiwkHP-27" value="Yes" style="edgeLabel;html=1;align=center;verticalAlign=middle;resizable=0;points=[];" parent="dgmD3xeiYTGedOPiwkHP-26" vertex="1" connectable="0">
          <mxGeometry x="-0.1281" y="2" relative="1" as="geometry">
            <mxPoint as="offset" />
          </mxGeometry>
        </mxCell>
        <mxCell id="dgmD3xeiYTGedOPiwkHP-28" style="edgeStyle=orthogonalEdgeStyle;html=1;labelBackgroundColor=none;endArrow=open;endSize=8;strokeColor=#ff0000;fontFamily=Verdana;fontSize=12;align=left;exitX=1;exitY=0.5;exitDx=0;exitDy=0;" parent="1" source="-b5_aeEiTCpsvocbng9k-11" target="dgmD3xeiYTGedOPiwkHP-16" edge="1">
          <mxGeometry relative="1" as="geometry">
            <mxPoint x="630" y="320" as="sourcePoint" />
            <mxPoint x="630" y="350" as="targetPoint" />
            <Array as="points">
              <mxPoint x="630" y="555" />
              <mxPoint x="630" y="266" />
            </Array>
          </mxGeometry>
        </mxCell>
        <mxCell id="dgmD3xeiYTGedOPiwkHP-29" style="edgeStyle=orthogonalEdgeStyle;html=1;labelBackgroundColor=none;endArrow=open;endSize=8;strokeColor=#ff0000;fontFamily=Verdana;fontSize=12;align=left;exitX=1;exitY=0.5;exitDx=0;exitDy=0;entryX=1;entryY=0.5;entryDx=0;entryDy=0;" parent="1" source="-b5_aeEiTCpsvocbng9k-15" target="dgmD3xeiYTGedOPiwkHP-16" edge="1">
          <mxGeometry relative="1" as="geometry">
            <mxPoint x="700" y="859" as="sourcePoint" />
            <mxPoint x="711" y="570" as="targetPoint" />
            <Array as="points">
              <mxPoint x="630" y="640" />
              <mxPoint x="630" y="266" />
            </Array>
          </mxGeometry>
        </mxCell>
        <mxCell id="dgmD3xeiYTGedOPiwkHP-32" style="edgeStyle=orthogonalEdgeStyle;html=1;labelBackgroundColor=none;endArrow=open;endSize=8;strokeColor=#ff0000;fontFamily=Verdana;fontSize=12;align=left;entryX=0;entryY=0.5;entryDx=0;entryDy=0;exitX=1;exitY=0;exitDx=0;exitDy=0;" parent="1" source="dgmD3xeiYTGedOPiwkHP-16" target="dgmD3xeiYTGedOPiwkHP-39" edge="1">
          <mxGeometry relative="1" as="geometry">
            <mxPoint x="540" y="239.375" as="sourcePoint" />
            <mxPoint x="740" y="105.5" as="targetPoint" />
            <Array as="points">
              <mxPoint x="605" y="239" />
              <mxPoint x="605" y="105" />
              <mxPoint x="760" y="105" />
            </Array>
          </mxGeometry>
        </mxCell>
        <mxCell id="dgmD3xeiYTGedOPiwkHP-33" value="msj is NULL" style="edgeLabel;html=1;align=center;verticalAlign=middle;resizable=0;points=[];" parent="dgmD3xeiYTGedOPiwkHP-32" vertex="1" connectable="0">
          <mxGeometry x="-0.0693" y="3" relative="1" as="geometry">
            <mxPoint x="8" y="18" as="offset" />
          </mxGeometry>
        </mxCell>
        <mxCell id="dgmD3xeiYTGedOPiwkHP-36" value="start_time := current time" style="rounded=1;whiteSpace=wrap;html=1;arcSize=24;fillColor=#ffffc0;strokeColor=#FF0000;shadow=0;comic=0;labelBackgroundColor=none;fontFamily=Verdana;fontSize=12;fontColor=#000000;align=center;" parent="1" vertex="1">
          <mxGeometry x="71" y="470" width="116" height="40" as="geometry" />
        </mxCell>
        <mxCell id="dgmD3xeiYTGedOPiwkHP-37" style="edgeStyle=orthogonalEdgeStyle;html=1;labelBackgroundColor=none;endArrow=open;endSize=8;strokeColor=#ff0000;fontFamily=Verdana;fontSize=12;align=left;exitX=0.5;exitY=1;exitDx=0;exitDy=0;entryX=0.5;entryY=0;entryDx=0;entryDy=0;" parent="1" source="FOoScroTNqUPBx7kzsJf-11" target="dgmD3xeiYTGedOPiwkHP-36" edge="1">
          <mxGeometry relative="1" as="geometry">
            <mxPoint x="260" y="380" as="sourcePoint" />
            <mxPoint x="261" y="410" as="targetPoint" />
          </mxGeometry>
        </mxCell>
        <mxCell id="dgmD3xeiYTGedOPiwkHP-38" style="edgeStyle=orthogonalEdgeStyle;html=1;labelBackgroundColor=none;endArrow=open;endSize=8;strokeColor=#ff0000;fontFamily=Verdana;fontSize=12;align=left;exitX=0.5;exitY=1;exitDx=0;exitDy=0;entryX=0.5;entryY=0;entryDx=0;entryDy=0;" parent="1" source="dgmD3xeiYTGedOPiwkHP-36" target="dgmD3xeiYTGedOPiwkHP-1" edge="1">
          <mxGeometry relative="1" as="geometry">
            <mxPoint x="223" y="502" as="sourcePoint" />
            <mxPoint x="223" y="532" as="targetPoint" />
            <Array as="points">
              <mxPoint x="129" y="520" />
              <mxPoint x="129" y="520" />
            </Array>
          </mxGeometry>
        </mxCell>
        <mxCell id="dgmD3xeiYTGedOPiwkHP-39" value="&lt;div&gt;&lt;span style=&quot;background-color: transparent; color: light-dark(rgb(0, 0, 0), rgb(255, 255, 255));&quot;&gt;current time - start_time &amp;gt; 10&lt;/span&gt;&lt;/div&gt;" style="rhombus;whiteSpace=wrap;html=1;fillColor=#FFFFCC;strokeColor=#FF0000;" parent="1" vertex="1">
          <mxGeometry x="770" y="75.5" width="180" height="59" as="geometry" />
        </mxCell>
        <mxCell id="dgmD3xeiYTGedOPiwkHP-40" style="edgeStyle=orthogonalEdgeStyle;html=1;labelBackgroundColor=none;endArrow=open;endSize=8;strokeColor=#ff0000;fontFamily=Verdana;fontSize=12;align=left;entryX=1;entryY=0.5;entryDx=0;entryDy=0;exitX=1;exitY=0.5;exitDx=0;exitDy=0;" parent="1" source="dgmD3xeiYTGedOPiwkHP-39" target="dgmD3xeiYTGedOPiwkHP-42" edge="1">
          <mxGeometry relative="1" as="geometry">
            <mxPoint x="840" y="787" as="sourcePoint" />
            <mxPoint x="1066" y="318" as="targetPoint" />
            <Array as="points">
              <mxPoint x="1030" y="105" />
              <mxPoint x="1030" y="780" />
            </Array>
          </mxGeometry>
        </mxCell>
        <mxCell id="dgmD3xeiYTGedOPiwkHP-41" value="No" style="edgeLabel;html=1;align=center;verticalAlign=middle;resizable=0;points=[];" parent="dgmD3xeiYTGedOPiwkHP-40" vertex="1" connectable="0">
          <mxGeometry x="-0.0693" y="3" relative="1" as="geometry">
            <mxPoint x="-43" y="-456" as="offset" />
          </mxGeometry>
        </mxCell>
        <mxCell id="dgmD3xeiYTGedOPiwkHP-42" value="sleep 20 ms" style="rounded=1;whiteSpace=wrap;html=1;arcSize=24;fillColor=#ffffc0;strokeColor=#ff0000;shadow=0;comic=0;labelBackgroundColor=none;fontFamily=Verdana;fontSize=12;fontColor=#000000;align=center;" parent="1" vertex="1">
          <mxGeometry x="537" y="760" width="128" height="40" as="geometry" />
        </mxCell>
        <mxCell id="dgmD3xeiYTGedOPiwkHP-43" style="edgeStyle=orthogonalEdgeStyle;html=1;labelBackgroundColor=none;endArrow=open;endSize=8;strokeColor=#ff0000;fontFamily=Verdana;fontSize=12;align=left;exitX=0;exitY=0.5;exitDx=0;exitDy=0;entryX=1;entryY=1;entryDx=0;entryDy=0;" parent="1" source="dgmD3xeiYTGedOPiwkHP-42" target="dgmD3xeiYTGedOPiwkHP-1" edge="1">
          <mxGeometry relative="1" as="geometry">
            <mxPoint x="952" y="480" as="sourcePoint" />
            <mxPoint x="962" y="661" as="targetPoint" />
            <Array as="points">
              <mxPoint x="220" y="780" />
              <mxPoint x="220" y="620" />
              <mxPoint x="184" y="620" />
            </Array>
          </mxGeometry>
        </mxCell>
        <mxCell id="dgmD3xeiYTGedOPiwkHP-45" value="Delete from BeaconLocate.Beacon_Table all registers where Disconnected = 1 and Registered = 1" style="rounded=1;whiteSpace=wrap;html=1;arcSize=24;fillColor=#ffffc0;strokeColor=#ff0000;shadow=0;comic=0;labelBackgroundColor=none;fontFamily=Verdana;fontSize=12;fontColor=#000000;align=center;" parent="1" vertex="1">
          <mxGeometry x="754" y="165" width="212" height="90" as="geometry" />
        </mxCell>
        <mxCell id="dgmD3xeiYTGedOPiwkHP-46" style="edgeStyle=orthogonalEdgeStyle;html=1;labelBackgroundColor=none;endArrow=open;endSize=8;strokeColor=#ff0000;fontFamily=Verdana;fontSize=12;align=left;exitX=0.5;exitY=1;exitDx=0;exitDy=0;entryX=0.5;entryY=0;entryDx=0;entryDy=0;" parent="1" source="dgmD3xeiYTGedOPiwkHP-39" target="dgmD3xeiYTGedOPiwkHP-45" edge="1">
          <mxGeometry relative="1" as="geometry">
            <mxPoint x="1082" y="350" as="sourcePoint" />
            <mxPoint x="900" y="470" as="targetPoint" />
            <Array as="points">
              <mxPoint x="860" y="150" />
              <mxPoint x="860" y="150" />
            </Array>
          </mxGeometry>
        </mxCell>
        <mxCell id="dgmD3xeiYTGedOPiwkHP-48" value="Yes" style="edgeLabel;html=1;align=center;verticalAlign=middle;resizable=0;points=[];" parent="dgmD3xeiYTGedOPiwkHP-46" vertex="1" connectable="0">
          <mxGeometry x="-0.225" y="-1" relative="1" as="geometry">
            <mxPoint x="12" y="-1" as="offset" />
          </mxGeometry>
        </mxCell>
        <mxCell id="dgmD3xeiYTGedOPiwkHP-49" value="number_rows := number of rows where Disconnected = 0 and Registered = 1" style="rounded=1;whiteSpace=wrap;html=1;arcSize=24;fillColor=#ffffc0;strokeColor=#ff0000;shadow=0;comic=0;labelBackgroundColor=none;fontFamily=Verdana;fontSize=12;fontColor=#000000;align=center;" parent="1" vertex="1">
          <mxGeometry x="754" y="290" width="212" height="60" as="geometry" />
        </mxCell>
        <mxCell id="dgmD3xeiYTGedOPiwkHP-50" style="edgeStyle=orthogonalEdgeStyle;html=1;labelBackgroundColor=none;endArrow=open;endSize=8;strokeColor=#ff0000;fontFamily=Verdana;fontSize=12;align=left;exitX=0.5;exitY=1;exitDx=0;exitDy=0;entryX=0.5;entryY=0;entryDx=0;entryDy=0;" parent="1" source="dgmD3xeiYTGedOPiwkHP-45" target="dgmD3xeiYTGedOPiwkHP-49" edge="1">
          <mxGeometry relative="1" as="geometry">
            <mxPoint x="960" y="120" as="sourcePoint" />
            <mxPoint x="960" y="150" as="targetPoint" />
            <Array as="points">
              <mxPoint x="860" y="290" />
              <mxPoint x="860" y="290" />
            </Array>
          </mxGeometry>
        </mxCell>
        <mxCell id="dgmD3xeiYTGedOPiwkHP-54" value="&lt;div&gt;&lt;span style=&quot;background-color: transparent; color: light-dark(rgb(0, 0, 0), rgb(255, 255, 255));&quot;&gt;number_rows &amp;gt; 5000&lt;/span&gt;&lt;/div&gt;" style="rhombus;whiteSpace=wrap;html=1;fillColor=#FFFFCC;strokeColor=#FF0000;" parent="1" vertex="1">
          <mxGeometry x="770" y="381" width="180" height="59" as="geometry" />
        </mxCell>
        <mxCell id="dgmD3xeiYTGedOPiwkHP-55" style="edgeStyle=orthogonalEdgeStyle;html=1;labelBackgroundColor=none;endArrow=open;endSize=8;strokeColor=#ff0000;fontFamily=Verdana;fontSize=12;align=left;exitX=0.5;exitY=1;exitDx=0;exitDy=0;entryX=0.5;entryY=0;entryDx=0;entryDy=0;" parent="1" source="dgmD3xeiYTGedOPiwkHP-49" target="dgmD3xeiYTGedOPiwkHP-54" edge="1">
          <mxGeometry relative="1" as="geometry">
            <mxPoint x="990" y="270" as="sourcePoint" />
            <mxPoint x="990" y="305" as="targetPoint" />
            <Array as="points" />
          </mxGeometry>
        </mxCell>
        <mxCell id="dgmD3xeiYTGedOPiwkHP-56" value="Delete registers where Disconnected = 0 and Registered = 1" style="rounded=1;whiteSpace=wrap;html=1;arcSize=24;fillColor=#ffffc0;strokeColor=#ff0000;shadow=0;comic=0;labelBackgroundColor=none;fontFamily=Verdana;fontSize=12;fontColor=#000000;align=center;" parent="1" vertex="1">
          <mxGeometry x="767" y="470" width="186" height="60" as="geometry" />
        </mxCell>
        <mxCell id="dgmD3xeiYTGedOPiwkHP-57" style="edgeStyle=orthogonalEdgeStyle;html=1;labelBackgroundColor=none;endArrow=open;endSize=8;strokeColor=#ff0000;fontFamily=Verdana;fontSize=12;align=left;exitX=0.5;exitY=1;exitDx=0;exitDy=0;entryX=0.5;entryY=0;entryDx=0;entryDy=0;" parent="1" source="dgmD3xeiYTGedOPiwkHP-54" target="dgmD3xeiYTGedOPiwkHP-56" edge="1">
          <mxGeometry relative="1" as="geometry">
            <mxPoint x="920" y="370" as="sourcePoint" />
            <mxPoint x="920" y="401" as="targetPoint" />
            <Array as="points" />
          </mxGeometry>
        </mxCell>
        <mxCell id="dgmD3xeiYTGedOPiwkHP-58" value="Yes" style="edgeLabel;html=1;align=center;verticalAlign=middle;resizable=0;points=[];" parent="dgmD3xeiYTGedOPiwkHP-57" vertex="1" connectable="0">
          <mxGeometry x="-0.1152" y="1" relative="1" as="geometry">
            <mxPoint x="9" y="-3" as="offset" />
          </mxGeometry>
        </mxCell>
        <mxCell id="dgmD3xeiYTGedOPiwkHP-59" value="&lt;div&gt;&lt;span style=&quot;background-color: transparent; color: light-dark(rgb(0, 0, 0), rgb(255, 255, 255));&quot;&gt;number_rows &amp;gt; 0&lt;/span&gt;&lt;/div&gt;" style="rhombus;whiteSpace=wrap;html=1;fillColor=#FFFFCC;strokeColor=#FF0000;" parent="1" vertex="1">
          <mxGeometry x="770" y="551" width="180" height="59" as="geometry" />
        </mxCell>
        <mxCell id="dgmD3xeiYTGedOPiwkHP-60" style="edgeStyle=orthogonalEdgeStyle;html=1;labelBackgroundColor=none;endArrow=open;endSize=8;strokeColor=#ff0000;fontFamily=Verdana;fontSize=12;align=left;exitX=0;exitY=0.5;exitDx=0;exitDy=0;entryX=0;entryY=0.5;entryDx=0;entryDy=0;" parent="1" source="dgmD3xeiYTGedOPiwkHP-54" target="dgmD3xeiYTGedOPiwkHP-59" edge="1">
          <mxGeometry relative="1" as="geometry">
            <mxPoint x="730" y="459" as="sourcePoint" />
            <mxPoint x="760" y="580" as="targetPoint" />
            <Array as="points">
              <mxPoint x="720" y="411" />
              <mxPoint x="720" y="581" />
            </Array>
          </mxGeometry>
        </mxCell>
        <mxCell id="dgmD3xeiYTGedOPiwkHP-61" value="No" style="edgeLabel;html=1;align=center;verticalAlign=middle;resizable=0;points=[];" parent="dgmD3xeiYTGedOPiwkHP-60" vertex="1" connectable="0">
          <mxGeometry x="-0.1094" relative="1" as="geometry">
            <mxPoint as="offset" />
          </mxGeometry>
        </mxCell>
        <mxCell id="dgmD3xeiYTGedOPiwkHP-62" value="Delete registers where Disconnected = 0 and Registered = 1 and have been saved for more than 1 week" style="rounded=1;whiteSpace=wrap;html=1;arcSize=24;fillColor=#ffffc0;strokeColor=#ff0000;shadow=0;comic=0;labelBackgroundColor=none;fontFamily=Verdana;fontSize=12;fontColor=#000000;align=center;" parent="1" vertex="1">
          <mxGeometry x="767" y="632" width="186" height="60" as="geometry" />
        </mxCell>
        <mxCell id="dgmD3xeiYTGedOPiwkHP-63" style="edgeStyle=orthogonalEdgeStyle;html=1;labelBackgroundColor=none;endArrow=open;endSize=8;strokeColor=#ff0000;fontFamily=Verdana;fontSize=12;align=left;exitX=0.5;exitY=1;exitDx=0;exitDy=0;entryX=0.5;entryY=0;entryDx=0;entryDy=0;" parent="1" source="dgmD3xeiYTGedOPiwkHP-59" target="dgmD3xeiYTGedOPiwkHP-62" edge="1">
          <mxGeometry relative="1" as="geometry">
            <mxPoint x="859.58" y="620" as="sourcePoint" />
            <mxPoint x="859.58" y="650" as="targetPoint" />
            <Array as="points" />
          </mxGeometry>
        </mxCell>
        <mxCell id="dgmD3xeiYTGedOPiwkHP-64" value="Yes" style="edgeLabel;html=1;align=center;verticalAlign=middle;resizable=0;points=[];" parent="dgmD3xeiYTGedOPiwkHP-63" vertex="1" connectable="0">
          <mxGeometry x="-0.1152" y="1" relative="1" as="geometry">
            <mxPoint x="19" y="-3" as="offset" />
          </mxGeometry>
        </mxCell>
        <mxCell id="dgmD3xeiYTGedOPiwkHP-65" style="edgeStyle=orthogonalEdgeStyle;html=1;labelBackgroundColor=none;endArrow=open;endSize=8;strokeColor=#ff0000;fontFamily=Verdana;fontSize=12;align=left;exitX=0.5;exitY=1;exitDx=0;exitDy=0;entryX=0.5;entryY=0;entryDx=0;entryDy=0;" parent="1" source="dgmD3xeiYTGedOPiwkHP-62" target="C_c0YMVDFaAgZATLu_z1-1" edge="1">
          <mxGeometry relative="1" as="geometry">
            <mxPoint x="742" y="670" as="sourcePoint" />
            <mxPoint x="752" y="851" as="targetPoint" />
            <Array as="points">
              <mxPoint x="860" y="710" />
            </Array>
          </mxGeometry>
        </mxCell>
        <mxCell id="dgmD3xeiYTGedOPiwkHP-67" style="edgeStyle=orthogonalEdgeStyle;html=1;labelBackgroundColor=none;endArrow=open;endSize=8;strokeColor=#ff0000;fontFamily=Verdana;fontSize=12;align=left;exitX=1;exitY=0.5;exitDx=0;exitDy=0;entryX=1;entryY=0.5;entryDx=0;entryDy=0;" parent="1" source="dgmD3xeiYTGedOPiwkHP-56" target="C_c0YMVDFaAgZATLu_z1-1" edge="1">
          <mxGeometry relative="1" as="geometry">
            <mxPoint x="1000" y="550" as="sourcePoint" />
            <mxPoint x="1000" y="572" as="targetPoint" />
            <Array as="points">
              <mxPoint x="990" y="500" />
              <mxPoint x="990" y="740" />
            </Array>
          </mxGeometry>
        </mxCell>
        <mxCell id="dgmD3xeiYTGedOPiwkHP-69" value="&lt;h1 style=&quot;margin-top: 0px;&quot;&gt;Periodic Task&lt;/h1&gt;&lt;p&gt;(verifyDisconnection)&lt;/p&gt;" style="text;html=1;whiteSpace=wrap;overflow=hidden;rounded=0;" parent="1" vertex="1">
          <mxGeometry x="80" y="870" width="180" height="70" as="geometry" />
        </mxCell>
        <mxCell id="dgmD3xeiYTGedOPiwkHP-70" value="" style="ellipse;html=1;shape=endState;fillColor=#000000;strokeColor=#ff0000;rounded=1;shadow=0;comic=0;labelBackgroundColor=none;fontFamily=Verdana;fontSize=12;fontColor=#000000;align=center;" parent="1" vertex="1">
          <mxGeometry x="608" y="1580" width="30" height="30" as="geometry" />
        </mxCell>
        <mxCell id="dgmD3xeiYTGedOPiwkHP-71" value="" style="ellipse;html=1;shape=startState;fillColor=#000000;strokeColor=#ff0000;rounded=1;shadow=0;comic=0;labelBackgroundColor=none;fontFamily=Verdana;fontSize=12;fontColor=#000000;align=center;direction=south;" parent="1" vertex="1">
          <mxGeometry x="620" y="920" width="30" height="30" as="geometry" />
        </mxCell>
        <mxCell id="dgmD3xeiYTGedOPiwkHP-74" value="&lt;div&gt;&lt;span style=&quot;background-color: transparent; color: light-dark(rgb(0, 0, 0), rgb(255, 255, 255));&quot;&gt;for every beacon in&amp;nbsp;&lt;/span&gt;&lt;/div&gt;&lt;div&gt;&lt;span style=&quot;background-color: transparent; color: light-dark(rgb(0, 0, 0), rgb(255, 255, 255));&quot;&gt;list of beacons&lt;/span&gt;&lt;/div&gt;" style="rhombus;whiteSpace=wrap;html=1;fillColor=#FFFFCC;strokeColor=#FF0000;" parent="1" vertex="1">
          <mxGeometry x="559" y="1000" width="152" height="80" as="geometry" />
        </mxCell>
        <mxCell id="dgmD3xeiYTGedOPiwkHP-75" value="&lt;div&gt;if current_date - beacon.timeEnd &amp;gt; 10 s&lt;/div&gt;" style="rhombus;whiteSpace=wrap;html=1;fillColor=#FFFFCC;strokeColor=#FF0000;" parent="1" vertex="1">
          <mxGeometry x="550" y="1110" width="170" height="80" as="geometry" />
        </mxCell>
        <mxCell id="dgmD3xeiYTGedOPiwkHP-76" style="edgeStyle=orthogonalEdgeStyle;html=1;labelBackgroundColor=none;endArrow=open;endSize=8;strokeColor=#ff0000;fontFamily=Verdana;fontSize=12;align=left;exitX=1;exitY=0.5;exitDx=0;exitDy=0;entryX=0.5;entryY=0;entryDx=0;entryDy=0;" parent="1" source="dgmD3xeiYTGedOPiwkHP-71" target="dgmD3xeiYTGedOPiwkHP-74" edge="1">
          <mxGeometry relative="1" as="geometry">
            <mxPoint x="490" y="800" as="sourcePoint" />
            <mxPoint x="491" y="830" as="targetPoint" />
            <Array as="points">
              <mxPoint x="635" y="990" />
              <mxPoint x="635" y="990" />
            </Array>
          </mxGeometry>
        </mxCell>
        <mxCell id="dgmD3xeiYTGedOPiwkHP-77" style="edgeStyle=orthogonalEdgeStyle;html=1;labelBackgroundColor=none;endArrow=open;endSize=8;strokeColor=#ff0000;fontFamily=Verdana;fontSize=12;align=left;exitX=0.5;exitY=1;exitDx=0;exitDy=0;entryX=0.5;entryY=0;entryDx=0;entryDy=0;" parent="1" source="dgmD3xeiYTGedOPiwkHP-74" target="dgmD3xeiYTGedOPiwkHP-75" edge="1">
          <mxGeometry relative="1" as="geometry">
            <mxPoint x="710" y="970" as="sourcePoint" />
            <mxPoint x="710" y="1010" as="targetPoint" />
            <Array as="points" />
          </mxGeometry>
        </mxCell>
        <mxCell id="dgmD3xeiYTGedOPiwkHP-87" value="beacon != NULL" style="edgeLabel;html=1;align=center;verticalAlign=middle;resizable=0;points=[];" parent="dgmD3xeiYTGedOPiwkHP-77" vertex="1" connectable="0">
          <mxGeometry x="-0.2493" y="-3" relative="1" as="geometry">
            <mxPoint x="47" as="offset" />
          </mxGeometry>
        </mxCell>
        <mxCell id="dgmD3xeiYTGedOPiwkHP-78" value="Add new register in&lt;span style=&quot;background-color: transparent; color: light-dark(rgb(0, 0, 0), rgb(237, 237, 237));&quot;&gt;&amp;nbsp;&lt;/span&gt;BeaconLocate.Beacon_Table with&lt;div&gt;&lt;span style=&quot;background-color: transparent; color: light-dark(rgb(0, 0, 0), rgb(237, 237, 237));&quot;&gt;MAC = beacon.MAC,&lt;/span&gt;&lt;/div&gt;&lt;div&gt;&lt;span style=&quot;background-color: transparent; color: light-dark(rgb(0, 0, 0), rgb(237, 237, 237));&quot;&gt;StartDate = beacon.timeStart,&lt;/span&gt;&lt;/div&gt;&lt;div&gt;EndDate = beacon.timeEnd ,&lt;span style=&quot;background-color: transparent; color: light-dark(rgb(0, 0, 0), rgb(237, 237, 237));&quot;&gt;&lt;/span&gt;&lt;/div&gt;&lt;div&gt;Disconnected = 1 ,&lt;/div&gt;&lt;div&gt;Registered = 0&lt;/div&gt;" style="rounded=1;whiteSpace=wrap;html=1;arcSize=24;fillColor=#ffffc0;strokeColor=#ff0000;shadow=0;comic=0;labelBackgroundColor=none;fontFamily=Verdana;fontSize=12;fontColor=#000000;align=center;" parent="1" vertex="1">
          <mxGeometry x="470" y="1330" width="330" height="100" as="geometry" />
        </mxCell>
        <mxCell id="dgmD3xeiYTGedOPiwkHP-80" style="edgeStyle=orthogonalEdgeStyle;html=1;labelBackgroundColor=none;endArrow=open;endSize=8;strokeColor=#ff0000;fontFamily=Verdana;fontSize=12;align=left;exitX=0.5;exitY=1;exitDx=0;exitDy=0;entryX=0.5;entryY=0;entryDx=0;entryDy=0;" parent="1" source="dgmD3xeiYTGedOPiwkHP-75" target="dgmD3xeiYTGedOPiwkHP-82" edge="1">
          <mxGeometry relative="1" as="geometry">
            <mxPoint x="750" y="1080" as="sourcePoint" />
            <mxPoint x="750" y="1110" as="targetPoint" />
            <Array as="points" />
          </mxGeometry>
        </mxCell>
        <mxCell id="dgmD3xeiYTGedOPiwkHP-81" value="Yes" style="edgeLabel;html=1;align=center;verticalAlign=middle;resizable=0;points=[];" parent="dgmD3xeiYTGedOPiwkHP-80" vertex="1" connectable="0">
          <mxGeometry x="-0.0788" relative="1" as="geometry">
            <mxPoint y="-4" as="offset" />
          </mxGeometry>
        </mxCell>
        <mxCell id="dgmD3xeiYTGedOPiwkHP-82" value="beacon.Disconnected := True" style="rounded=1;whiteSpace=wrap;html=1;arcSize=24;fillColor=#ffffc0;strokeColor=#ff0000;shadow=0;comic=0;labelBackgroundColor=none;fontFamily=Verdana;fontSize=12;fontColor=#000000;align=center;" parent="1" vertex="1">
          <mxGeometry x="555" y="1235" width="160" height="60" as="geometry" />
        </mxCell>
        <mxCell id="dgmD3xeiYTGedOPiwkHP-83" style="edgeStyle=orthogonalEdgeStyle;html=1;labelBackgroundColor=none;endArrow=open;endSize=8;strokeColor=#ff0000;fontFamily=Verdana;fontSize=12;align=left;exitX=0.5;exitY=1;exitDx=0;exitDy=0;entryX=0.5;entryY=0;entryDx=0;entryDy=0;" parent="1" source="dgmD3xeiYTGedOPiwkHP-82" target="dgmD3xeiYTGedOPiwkHP-78" edge="1">
          <mxGeometry relative="1" as="geometry">
            <mxPoint x="870" y="1110" as="sourcePoint" />
            <mxPoint x="870" y="1140" as="targetPoint" />
            <Array as="points" />
          </mxGeometry>
        </mxCell>
        <mxCell id="dgmD3xeiYTGedOPiwkHP-85" style="edgeStyle=orthogonalEdgeStyle;html=1;labelBackgroundColor=none;endArrow=open;endSize=8;strokeColor=#ff0000;fontFamily=Verdana;fontSize=12;align=left;exitX=0;exitY=0.5;exitDx=0;exitDy=0;entryX=0;entryY=0.5;entryDx=0;entryDy=0;" parent="1" source="dgmD3xeiYTGedOPiwkHP-78" target="dgmD3xeiYTGedOPiwkHP-74" edge="1">
          <mxGeometry relative="1" as="geometry">
            <mxPoint x="850" y="1250" as="sourcePoint" />
            <mxPoint x="850" y="1285" as="targetPoint" />
            <Array as="points">
              <mxPoint x="360" y="1380" />
              <mxPoint x="360" y="1040" />
            </Array>
          </mxGeometry>
        </mxCell>
        <mxCell id="dgmD3xeiYTGedOPiwkHP-86" value="Delete beacons in list of beacons that:&lt;div&gt;self.Disconnected = True&lt;/div&gt;" style="rounded=1;whiteSpace=wrap;html=1;arcSize=24;fillColor=#ffffc0;strokeColor=#ff0000;shadow=0;comic=0;labelBackgroundColor=none;fontFamily=Verdana;fontSize=12;fontColor=#000000;align=center;" parent="1" vertex="1">
          <mxGeometry x="537" y="1460" width="173" height="60" as="geometry" />
        </mxCell>
        <mxCell id="dgmD3xeiYTGedOPiwkHP-88" style="edgeStyle=orthogonalEdgeStyle;html=1;labelBackgroundColor=none;endArrow=open;endSize=8;strokeColor=#ff0000;fontFamily=Verdana;fontSize=12;align=left;exitX=1;exitY=0.5;exitDx=0;exitDy=0;entryX=1;entryY=0.5;entryDx=0;entryDy=0;" parent="1" source="dgmD3xeiYTGedOPiwkHP-74" target="dgmD3xeiYTGedOPiwkHP-86" edge="1">
          <mxGeometry relative="1" as="geometry">
            <mxPoint x="850" y="1440" as="sourcePoint" />
            <mxPoint x="939" y="1100" as="targetPoint" />
            <Array as="points">
              <mxPoint x="830" y="1040" />
              <mxPoint x="830" y="1490" />
            </Array>
          </mxGeometry>
        </mxCell>
        <mxCell id="dgmD3xeiYTGedOPiwkHP-89" value="&lt;span style=&quot;color: rgba(0, 0, 0, 0); font-family: monospace; font-size: 0px; text-align: start; background-color: rgb(236, 236, 236);&quot;&gt;%3CmxGraphModel%3E%3Croot%3E%3CmxCell%20id%3D%220%22%2F%3E%3CmxCell%20id%3D%221%22%20parent%3D%220%22%2F%3E%3CmxCell%20id%3D%222%22%20value%3D%22beacon%20!%3D%20NULL%22%20style%3D%22edgeLabel%3Bhtml%3D1%3Balign%3Dcenter%3BverticalAlign%3Dmiddle%3Bresizable%3D0%3Bpoints%3D%5B%5D%3B%22%20vertex%3D%221%22%20connectable%3D%220%22%20parent%3D%221%22%3E%3CmxGeometry%20x%3D%22469%22%20y%3D%221101%22%20as%3D%22geometry%22%2F%3E%3C%2FmxCell%3E%3C%2Froot%3E%3C%2FmxGraphModel%3E&lt;/span&gt;&lt;span style=&quot;color: rgba(0, 0, 0, 0); font-family: monospace; font-size: 0px; text-align: start; background-color: rgb(236, 236, 236);&quot;&gt;%3CmxGraphModel%3E%3Croot%3E%3CmxCell%20id%3D%220%22%2F%3E%3CmxCell%20id%3D%221%22%20parent%3D%220%22%2F%3E%3CmxCell%20id%3D%222%22%20value%3D%22beacon%20!%3D%20NULL%22%20style%3D%22edgeLabel%3Bhtml%3D1%3Balign%3Dcenter%3BverticalAlign%3Dmiddle%3Bresizable%3D0%3Bpoints%3D%5B%5D%3B%22%20vertex%3D%221%22%20connectable%3D%220%22%20parent%3D%221%22%3E%3CmxGeometry%20x%3D%22469%22%20y%3D%221101%22%20as%3D%22geometry%22%2F%3E%3C%2FmxCell%3E%3C%2Froot%3E%3C%2FmxGraphModel%3E&lt;/span&gt;" style="edgeLabel;html=1;align=center;verticalAlign=middle;resizable=0;points=[];" parent="dgmD3xeiYTGedOPiwkHP-88" vertex="1" connectable="0">
          <mxGeometry x="-0.5123" relative="1" as="geometry">
            <mxPoint as="offset" />
          </mxGeometry>
        </mxCell>
        <mxCell id="dgmD3xeiYTGedOPiwkHP-90" value="&lt;span style=&quot;color: rgba(0, 0, 0, 0); font-family: monospace; font-size: 0px; text-align: start; background-color: rgb(236, 236, 236);&quot;&gt;%3CmxGraphModel%3E%3Croot%3E%3CmxCell%20id%3D%220%22%2F%3E%3CmxCell%20id%3D%221%22%20parent%3D%220%22%2F%3E%3CmxCell%20id%3D%222%22%20value%3D%22beacon%20!%3D%20NULL%22%20style%3D%22edgeLabel%3Bhtml%3D1%3Balign%3Dcenter%3BverticalAlign%3Dmiddle%3Bresizable%3D0%3Bpoints%3D%5B%5D%3B%22%20vertex%3D%221%22%20connectable%3D%220%22%20parent%3D%221%22%3E%3CmxGeometry%20x%3D%22469%22%20y%3D%221101%22%20as%3D%22geometry%22%2F%3E%3C%2FmxCel&lt;/span&gt;" style="edgeLabel;html=1;align=center;verticalAlign=middle;resizable=0;points=[];" parent="dgmD3xeiYTGedOPiwkHP-88" vertex="1" connectable="0">
          <mxGeometry x="-0.3643" y="2" relative="1" as="geometry">
            <mxPoint as="offset" />
          </mxGeometry>
        </mxCell>
        <mxCell id="dgmD3xeiYTGedOPiwkHP-91" value="&lt;span style=&quot;color: rgba(0, 0, 0, 0); font-family: monospace; font-size: 0px; text-align: start; background-color: rgb(236, 236, 236);&quot;&gt;%3CmxGraphModel%3E%3Croot%3E%3CmxCell%20id%3D%220%22%2F%3E%3CmxCell%20id%3D%221%22%20parent%3D%220%22%2F%3E%3CmxCell%20id%3D%222%22%20value%3D%22beacon%20!%3D%20NULL%22%20style%3D%22edgeLabel%3Bhtml%3D1%3Balign%3Dcenter%3BverticalAlign%3Dmiddle%3Bresizable%3D0%3Bpoints%3D%5B%5D%3B%22%20vertex%3D%221%22%20connectable%3D%220%22%20parent%3D%221%22%3E%3CmxGeometry%20x%3D%22469%22%20y%3D%221101%22%20as%3D%22geometry%22%2F%3E%3C%2FmxCell%3E%3cddddds&lt;/span&gt;" style="edgeLabel;html=1;align=center;verticalAlign=middle;resizable=0;points=[];" parent="dgmD3xeiYTGedOPiwkHP-88" vertex="1" connectable="0">
          <mxGeometry x="-0.1695" relative="1" as="geometry">
            <mxPoint as="offset" />
          </mxGeometry>
        </mxCell>
        <mxCell id="dgmD3xeiYTGedOPiwkHP-92" value="beacon = NULL" style="edgeLabel;html=1;align=center;verticalAlign=middle;resizable=0;points=[];" parent="dgmD3xeiYTGedOPiwkHP-88" vertex="1" connectable="0">
          <mxGeometry x="-0.0647" y="1" relative="1" as="geometry">
            <mxPoint y="7" as="offset" />
          </mxGeometry>
        </mxCell>
        <mxCell id="dgmD3xeiYTGedOPiwkHP-93" style="edgeStyle=orthogonalEdgeStyle;html=1;labelBackgroundColor=none;endArrow=open;endSize=8;strokeColor=#ff0000;fontFamily=Verdana;fontSize=12;align=left;exitX=0.5;exitY=1;exitDx=0;exitDy=0;entryX=0.5;entryY=0;entryDx=0;entryDy=0;" parent="1" source="dgmD3xeiYTGedOPiwkHP-86" target="dgmD3xeiYTGedOPiwkHP-70" edge="1">
          <mxGeometry relative="1" as="geometry">
            <mxPoint x="670" y="1310" as="sourcePoint" />
            <mxPoint x="670" y="1345" as="targetPoint" />
            <Array as="points" />
          </mxGeometry>
        </mxCell>
        <mxCell id="C_c0YMVDFaAgZATLu_z1-1" value="start_time := current time" style="rounded=1;whiteSpace=wrap;html=1;arcSize=24;fillColor=#ffffc0;strokeColor=#FF0000;shadow=0;comic=0;labelBackgroundColor=none;fontFamily=Verdana;fontSize=12;fontColor=#000000;align=center;" vertex="1" parent="1">
          <mxGeometry x="802" y="720" width="116" height="40" as="geometry" />
        </mxCell>
        <mxCell id="C_c0YMVDFaAgZATLu_z1-2" style="edgeStyle=orthogonalEdgeStyle;html=1;labelBackgroundColor=none;endArrow=open;endSize=8;strokeColor=#ff0000;fontFamily=Verdana;fontSize=12;align=left;exitX=0.5;exitY=1;exitDx=0;exitDy=0;entryX=1;entryY=0.5;entryDx=0;entryDy=0;" edge="1" parent="1" source="C_c0YMVDFaAgZATLu_z1-1" target="dgmD3xeiYTGedOPiwkHP-42">
          <mxGeometry relative="1" as="geometry">
            <mxPoint x="975" y="540" as="sourcePoint" />
            <mxPoint x="940" y="780" as="targetPoint" />
            <Array as="points">
              <mxPoint x="860" y="780" />
            </Array>
          </mxGeometry>
        </mxCell>
      </root>
    </mxGraphModel>
  </diagram>
</mxfile>
